<?xml version="1.0" encoding="UTF-8"?>
<!DOCTYPE svg PUBLIC "-//W3C//DTD SVG 1.1//EN" "http://www.w3.org/Graphics/SVG/1.1/DTD/svg11.dtd">
<!-- Creator: CorelDRAW X7 -->
<svg xmlns="http://www.w3.org/2000/svg" xml:space="preserve" width="1.10844in" height="1.21367in" version="1.1" style="shape-rendering:geometricPrecision; text-rendering:geometricPrecision; image-rendering:optimizeQuality; fill-rule:evenodd; clip-rule:evenodd"
viewBox="0 0 985 1079"
 xmlns:xlink="http://www.w3.org/1999/xlink">
 <defs>
  <style type="text/css">
   <![CDATA[
    .fil0 {fill:#FFC600}
   ]]>
  </style>
 </defs>
 <g id="Layer_x0020_1">
  <metadata id="CorelCorpID_0Corel-Layer"/>
  <g id="_2194395473488">
   <path class="fil0" d="M287 1012l411 0 0 21 -411 0 0 -21zm698 -582l0 11c-2,35 -27,64 -61,64 -9,0 -19,-6 -27,-7l0 527c0,23 4,54 -18,54l-777 0c-22,0 -17,-31 -17,-57l0 -526c-24,6 -51,9 -70,-15 -12,-14 -15,-29 -15,-50 0,-38 24,-57 45,-73l190 -154c11,-9 21,-18 32,-26 11,-9 21,-17 32,-26 54,-46 121,-96 174,-141 9,-8 9,-11 22,-11 4,0 181,145 192,154l190 154c19,15 83,63 93,79 10,14 14,29 15,43zm-539 328l12 0c-2,-2 -3,-1 -3,-4 1,-4 -3,-5 5,-5l238 0 0 206 -411 0 0 -206 152 0c11,0 14,0 7,9zm408 -279l0 554 -100 0 0 -504c0,-24 -23,-20 -36,-20 -11,0 -20,10 -20,22l0 162 -411 0 0 -175c0,-30 -56,-30 -56,-2l0 517 -106 0 0 -556c0,-8 16,-17 25,-25l111 -88c10,-8 19,-15 29,-23 19,-15 37,-30 56,-44 1,58 36,112 81,139 37,23 92,22 130,1 30,-17 53,-45 68,-78 6,-14 13,-42 14,-62 9,7 18,13 27,21 50,41 143,118 190,154 -1,3 -2,3 -2,7zm-483 -182c0,-48 9,-74 37,-106 46,-52 123,-52 168,-1 29,33 38,58 38,107 0,35 -14,63 -33,86l-4 5c-64,69 -159,40 -193,-38 -6,-13 -13,-34 -13,-53z"/>
   <path class="fil0" d="M391 619l-66 0c-17,0 -13,17 -13,37 0,5 1,7 5,7l351 0c4,0 5,-2 5,-7 0,-35 10,-110 -38,-110l-189 0c-37,0 -55,36 -55,73z"/>
   <path class="fil0" d="M391 886l-70 0c-12,0 -9,27 -9,41l361 0c0,-36 10,-115 -38,-115l-191 0c-34,0 -53,35 -53,74z"/>
   <path class="fil0" d="M429 364l46 0 0 -56 35 0 0 56 46 0 0 -150c-57,0 -46,-13 -46,55l-35 0c0,-68 12,-55 -46,-55l0 150z"/>
   <path class="fil0" d="M350 882c41,0 49,-56 17,-73 -35,-20 -67,34 -36,63 4,3 14,10 19,10z"/>
   <path class="fil0" d="M352 615c19,0 35,-18 35,-39 0,-16 -15,-37 -29,-37l-12 0c-15,0 -29,22 -27,40 1,19 16,36 33,36z"/>
   <path class="fil0" d="M381 775l10 0c-7,11 -12,8 -12,26 11,0 16,-3 25,-4l0 -6 -13 0c5,-10 11,-8 11,-22l-21 0 0 6z"/>
   <path class="fil0" d="M381 509l10 0c-9,15 -12,11 -12,26 11,0 16,-3 25,-4l0 -7 -13 0c5,-9 11,-8 11,-21l-21 0 0 6z"/>
   <path class="fil0" d="M419 765l6 0c-4,7 -7,4 -7,15l17 0 0 -7 -8 0c5,-7 7,-4 8,-15l-16 0 0 7z"/>
   <path class="fil0" d="M419 498l6 0c-4,8 -7,5 -7,15l17 0 0 -6 -8 0c5,-8 7,-5 8,-15l-16 0 0 6z"/>
   <path class="fil0" d="M446 492l12 0c-3,-3 -3,-3 -3,-6 0,0 2,-3 3,-7l-10 0c2,9 3,6 -2,13z"/>
  </g>
 </g>
</svg>
